HIERARCHY
ROOT Hips
{
  OFFSET 179.979 97.3047 303.174
  CHANNELS 6 Xposition Yposition Zposition Zrotation Xrotation Yrotation
  JOINT Spine
  {
    OFFSET 0.000859786 9.92346 -1.22733
    CHANNELS 3 Zrotation Xrotation Yrotation
    JOINT Spine1
    {
      OFFSET 0 11.732 0
      CHANNELS 3 Zrotation Xrotation Yrotation
      JOINT Spine2
      {
        OFFSET 0 13.4588 0
        CHANNELS 3 Zrotation Xrotation Yrotation
        JOINT Neck
        {
          OFFSET 2.54812e-05 15.0278 0.877907
          CHANNELS 3 Zrotation Xrotation Yrotation
          JOINT Head
          {
            OFFSET 0 10.3218 3.14243
            CHANNELS 3 Zrotation Xrotation Yrotation
            End Site
            {
              OFFSET 0 0 0
            }
          }
        }
        JOINT LeftShoulder
        {
          OFFSET 6.10582 9.10629 0.757062
          CHANNELS 3 Zrotation Xrotation Yrotation
          JOINT LeftArm
          {
            OFFSET 0 12.9223 0
            CHANNELS 3 Zrotation Xrotation Yrotation
            JOINT LeftForeArm
            {
              OFFSET 0 27.4047 0
              CHANNELS 3 Zrotation Xrotation Yrotation
              JOINT LeftHand
              {
                OFFSET -1.28204e-05 27.6145 0
                CHANNELS 3 Zrotation Xrotation Yrotation
                End Site
                {
                  OFFSET 0 0 0
                }
              }
            }
          }
        }
        JOINT RightShoulder
        {
          OFFSET -6.1057 9.10638 0.757076
          CHANNELS 3 Zrotation Xrotation Yrotation
          JOINT RightArm
          {
            OFFSET 0 12.9223 0
            CHANNELS 3 Zrotation Xrotation Yrotation
            JOINT RightForeArm
            {
              OFFSET 0 27.4047 0
              CHANNELS 3 Zrotation Xrotation Yrotation
              JOINT RightHand
              {
                OFFSET 1.28428e-05 27.6145 1.44975e-05
                CHANNELS 3 Zrotation Xrotation Yrotation
                End Site
                {
                  OFFSET 0 0 0
                }
              }
            }
          }
        }
      }
    }
  }
  JOINT LeftUpLeg
  {
    OFFSET 9.12387 -6.65719 -0.0554031
    CHANNELS 3 Zrotation Xrotation Yrotation
    JOINT LeftLeg
    {
      OFFSET 0 40.5994 0
      CHANNELS 3 Zrotation Xrotation Yrotation
      JOINT LeftFoot
      {
        OFFSET 0 42.099 0
        CHANNELS 3 Zrotation Xrotation Yrotation
        JOINT LeftToeBase
        {
          OFFSET 0 15.7216 0
          CHANNELS 3 Zrotation Xrotation Yrotation
          End Site
          {
            OFFSET 0 0 0
          }
        }
      }
    }
  }
  JOINT RightUpLeg
  {
    OFFSET -9.12503 -6.6556 -0.0553527
    CHANNELS 3 Zrotation Xrotation Yrotation
    JOINT RightLeg
    {
      OFFSET 0 40.5994 0
      CHANNELS 3 Zrotation Xrotation Yrotation
      JOINT RightFoot
      {
        OFFSET 0 42.099 0
        CHANNELS 3 Zrotation Xrotation Yrotation
        JOINT RightToeBase
        {
          OFFSET 0 15.7216 0
          CHANNELS 3 Zrotation Xrotation Yrotation
          End Site
          {
            OFFSET 0 0 0
          }
        }
      }
    }
  }
}
MOTION
Frames:	13
Frame Time:	0.0333333
-140.072 98.4126 -141.947 0.718785 -7.17431 1.58319 0.247004 -5.06437 0.130246 0.486835 3.82087 0.185226 0.468825 10.4153 0.18872 -0.993154 12.5794 2.40198 1.11281 -5.10254 1.8021 -88.1377 -23.3817 89.5024 24.0275 -1.89835 -15.6415 11.7433 -15.6951 -0.698525 -14.7901 2.93074 2.64094 87.4557 -9.68668 -90.5649 -10.5786 8.55403 25.3241 -18.5716 -18.991 0.906883 14.1581 -2.15811 -11.3417 -177.424 -3.45957 -7.66314 -3.93334 -14.706 -0.7851 7.91845 78.2903 -4.4041 -0.965274 26.367 -3.60229 -179.039 -3.27487 -3.33854 5.0784 -15.3194 13.5823 -41.8962 74.7568 38.881 0.963535 26.3682 3.55537 
-140.079 98.4125 -141.875 0.709915 -7.18529 1.63024 0.247022 -5.07241 0.130247 0.486887 3.80476 0.185223 0.46888 10.3992 0.18871 -1.11026 12.1794 2.20361 1.37577 -5.04377 1.50183 -88.1607 -23.3419 89.5046 24.0166 -1.85367 -15.6423 11.811 -15.6984 -0.698536 -14.813 2.96263 2.60824 87.4594 -9.68191 -90.5654 -10.5536 8.52551 25.4798 -18.5714 -19.0014 0.90694 14.17 -2.06343 -11.4031 -177.394 -3.52297 -7.58888 -3.96267 -14.6887 -0.786134 7.93444 78.3228 -4.42298 -0.965274 26.367 -3.60229 -179.022 -3.34944 -3.3207 5.08762 -15.2923 13.6028 -41.9549 74.7532 38.9404 0.963535 26.3682 3.55537 
-140.091 98.4121 -141.719 0.696868 -7.20628 1.73243 0.247068 -5.0927 0.130252 0.487019 3.76408 0.185214 0.469016 10.3585 0.188685 -1.29349 11.4046 1.78708 1.75998 -4.98097 0.932951 -88.2153 -23.2751 89.5073 23.999 -1.74581 -15.6539 11.9848 -15.728 -0.704402 -14.8872 3.00348 2.62289 87.4841 -9.64399 -90.57 -10.4858 8.47845 25.5234 -18.5678 -18.9698 0.906768 14.2934 -2.30279 -10.7027 -177.348 -3.65908 -7.47134 -3.99381 -14.6473 -0.789609 7.9564 78.3904 -4.45727 -0.965274 26.367 -3.60229 -178.996 -3.50115 -3.27067 5.11199 -15.2446 13.6412 -42.0749 74.7503 39.0572 0.963535 26.3682 3.55537 
-140.106 98.4118 -141.569 0.680412 -7.22601 1.79917 0.247064 -5.11226 0.13177 0.486837 3.7251 0.189967 0.468877 10.3195 0.192807 -1.44797 10.7392 1.39514 1.96543 -4.98078 0.437793 -88.2527 -23.2295 89.5093 24.0052 -1.60739 -15.7011 12.1441 -15.7755 -0.711876 -15.0248 3.11039 2.57721 87.5142 -9.58772 -90.5763 -10.4594 8.56139 25.2572 -18.5302 -19.0136 0.907006 14.3094 -3.533 -9.82603 -177.311 -3.78677 -7.43666 -3.98586 -14.6203 -0.759823 7.87156 78.4647 -4.39829 -0.965274 26.367 -3.60229 -178.963 -3.62689 -3.26189 5.13348 -15.2193 13.6854 -42.1945 74.7421 39.1728 0.963535 26.3682 3.55537 
-140.13 98.4122 -141.429 0.649061 -7.24284 1.80065 0.246668 -5.12731 0.145115 0.485096 3.69501 0.218715 0.467128 10.2894 0.221494 -1.54069 10.1135 1.0483 2.0693 -4.95882 0.0349115 -88.2577 -23.2096 89.5106 24.0553 -1.43403 -15.7862 12.2266 -15.8289 -0.719695 -15.1617 3.40144 2.35729 87.5516 -9.54545 -90.5824 -10.5043 8.76723 25.207 -18.6079 -19.1056 0.90751 14.0862 -5.66027 -9.53811 -177.256 -3.90783 -7.44922 -3.98109 -14.6059 -0.739781 7.80656 78.5447 -4.36695 -0.965274 26.367 -3.60229 -178.903 -3.74119 -3.3474 5.14555 -15.1862 13.7481 -42.3159 74.7122 39.2895 0.963535 26.3682 3.55537 
-140.16 98.4127 -141.296 0.601625 -7.25695 1.76277 0.246062 -5.13845 0.164895 0.488962 3.67282 0.259342 0.46456 10.2672 0.262904 -1.57816 9.55675 0.763153 2.11475 -4.91328 -0.27131 -88.2639 -23.2035 89.511 24.1287 -1.28989 -15.8263 12.1969 -15.8605 -0.721115 -15.2131 3.69973 2.20486 87.5969 -9.50855 -90.5886 -10.5678 8.9869 25.3562 -18.7445 -19.1505 0.907756 13.6422 -8.44726 -10.1398 -177.185 -4.01141 -7.45554 -3.97835 -14.6203 -0.746971 7.81902 78.6381 -4.42507 -0.965274 26.367 -3.60229 -178.818 -3.85303 -3.4401 5.13582 -15.1423 13.79 -42.378 74.6789 39.3435 0.963535 26.3682 3.55537 
-140.189 98.4132 -141.167 0.554715 -7.26725 1.73043 0.245548 -5.14612 0.18167 0.495144 3.65762 0.293118 0.462413 10.252 0.297645 -1.61502 9.06957 0.533727 2.16195 -4.86841 -0.521139 -88.2787 -23.2025 89.5103 24.1929 -1.20382 -15.8086 12.0611 -15.8257 -0.718945 -15.1723 4.0031 2.0743 87.6301 -9.47394 -90.5936 -10.6128 9.14095 25.6411 -18.8714 -19.0856 0.9074 13.3848 -10.2403 -10.5784 -177.118 -4.10723 -7.48491 -3.96222 -14.6343 -0.739793 7.77101 78.7273 -4.42392 -0.965274 26.367 -3.60229 -178.734 -3.96717 -3.49872 5.11745 -15.0859 13.8123 -42.3939 74.6478 39.3486 0.963535 26.3682 3.55537 
-140.218 98.4136 -141.044 0.519202 -7.27413 1.71366 0.246355 -5.14886 0.193369 0.498204 3.65219 0.316633 0.460906 10.2466 0.32173 -1.64276 8.60774 0.347367 2.21061 -4.79625 -0.724182 -88.2902 -23.1997 89.5099 24.228 -1.15209 -15.8021 11.8677 -15.7353 -0.712845 -15.0861 4.29663 1.98493 87.6471 -9.45598 -90.5962 -10.6549 9.22018 25.8543 -18.9174 -19.0259 0.907073 13.2911 -10.863 -10.1055 -177.066 -4.21086 -7.49101 -3.94573 -14.6112 -0.728142 7.72957 78.7917 -4.42914 -0.965274 26.367 -3.60229 -178.664 -4.06875 -3.53453 5.10042 -15.0351 13.8298 -42.3978 74.6185 39.341 0.963535 26.3682 3.55537 
-140.248 98.4138 -140.926 0.490812 -7.27708 1.71058 0.247516 -5.14754 0.200248 0.498726 3.65476 0.330494 0.459993 10.2491 0.335824 -1.67135 8.22098 0.197565 2.2687 -4.74968 -0.892502 -88.2966 -23.1607 89.5129 24.1804 -1.14062 -15.8383 11.6541 -15.5918 -0.706059 -14.9747 4.58099 1.91153 87.6484 -9.45502 -90.5963 -10.6807 9.225 25.9459 -18.9283 -19.0438 0.908182 13.3815 -10.4051 -9.17761 -177.023 -4.30371 -7.4857 -3.92512 -14.5891 -0.719984 7.68151 78.8509 -4.42938 -0.965274 26.367 -3.60229 -178.6 -4.17531 -3.56449 5.0856 -14.9796 13.8512 -42.4282 74.5944 39.3626 0.963535 26.3682 3.55537 
-140.278 98.4137 -140.813 0.46711 -7.2759 1.72813 0.248426 -5.14333 0.201325 0.497456 3.66334 0.332953 0.459796 10.2577 0.33811 -1.70427 7.90587 0.0770197 2.34517 -4.69688 -1.03727 -88.2977 -23.1105 89.5171 24.102 -1.15379 -15.9351 11.4299 -15.4318 -0.696589 -14.8874 4.76422 1.98246 87.639 -9.46489 -90.595 -10.6797 9.1948 26.015 -18.8942 -19.1569 0.91796 13.4158 -9.20849 -8.98501 -176.983 -4.38303 -7.47587 -3.89913 -14.5756 -0.702446 7.60012 78.9099 -4.39722 -0.965274 26.367 -3.60229 -178.541 -4.25457 -3.55617 5.06819 -14.951 13.8631 -42.4563 74.5815 39.3833 0.963535 26.3682 3.55537 
-140.311 98.4132 -140.709 0.447352 -7.26896 1.77293 0.24848 -5.13609 0.195676 0.492659 3.67775 0.322297 0.456341 10.2721 0.32726 -1.74257 7.62134 -0.0121102 2.42163 -4.60309 -1.15363 -88.2816 -23.0623 89.52 24.0094 -1.18305 -16.1006 11.2312 -15.3188 -0.691216 -14.8354 5.07291 2.06823 87.6201 -9.48091 -90.5922 -10.6562 9.13633 26.172 -18.9049 -19.2369 0.925551 13.5471 -7.6712 -9.08023 -176.941 -4.43174 -7.46858 -3.86753 -14.5921 -0.668303 7.45905 78.9747 -4.30551 -0.965274 26.367 -3.60229 -178.479 -4.33767 -3.49171 5.03905 -14.919 13.8555 -42.4823 74.5861 39.4036 0.963535 26.3682 3.55537 
-140.348 98.4072 -140.615 0.433798 -7.25573 1.83782 0.246248 -5.12644 0.184972 0.483589 3.697 0.30277 0.449539 10.2914 0.307475 -1.74492 7.38791 -0.0915661 2.44883 -4.52861 -1.23707 -88.253 -23.0143 89.5245 23.9219 -1.23802 -16.242 11.0458 -15.2761 -0.687159 -14.8665 5.7464 1.87066 87.5859 -9.49603 -90.5886 -10.5996 9.06069 26.4716 -18.9778 -19.2357 0.926223 13.9047 -5.56929 -9.77494 -176.897 -4.43968 -7.47818 -3.83051 -14.6547 -0.614268 7.2423 79.0464 -4.1375 -0.965274 26.367 -3.60229 -178.419 -4.37868 -3.36033 4.99769 -14.9359 13.8212 -42.5002 74.6179 39.4184 0.963535 26.3682 3.55537 
-140.39 98.3992 -140.525 0.425772 -7.23495 1.90951 0.238586 -5.11563 0.173417 0.468663 3.71852 0.281661 0.437074 10.3129 0.286089 -1.69058 7.19449 -0.163067 2.4214 -4.46936 -1.28019 -88.2159 -22.9666 89.5332 23.8444 -1.34067 -16.2959 10.9261 -15.2503 -0.685342 -15.2687 6.57076 1.49958 87.5379 -9.51085 -90.5839 -10.5249 8.99218 26.8597 -19.1099 -19.2107 0.925857 14.5504 -2.84621 -10.7288 -176.85 -4.42496 -7.50451 -3.7942 -14.741 -0.547633 6.97508 79.1208 -3.91794 -0.965274 26.367 -3.60229 -178.359 -4.40087 -3.16509 4.93894 -14.9771 13.7515 -42.4878 74.6757 39.404 0.963535 26.3682 3.55537 
